<?xml version="1.0" encoding="UTF-8" standalone="no"?>
<!-- Created with Inkscape (http://www.inkscape.org/) -->

<svg
   width="343.95828mm"
   height="222.4153mm"
   viewBox="0 0 343.95828 222.4153"
   version="1.1"
   id="svg1"
   xmlns="http://www.w3.org/2000/svg"
   xmlns:svg="http://www.w3.org/2000/svg">
  <defs
     id="defs1" />
  <g
     id="layer1"
     transform="translate(-343.95827,28.045799)">
    <path
       id="rect45-7-2-0"
       style="opacity:0.990264;fill:#1a1a1a;stroke-width:1.2"
       d="M 343.9583,-28.0458 V 194.3695 H 687.91661 V -28.0458 Z m 100.1763,15.707 a 34.850914,34.850914 0 0 1 34.8511,34.851 34.850914,34.850914 0 0 1 -34.8511,34.8507 34.850914,34.850914 0 0 1 -34.8505,-34.8507 34.850914,34.850914 0 0 1 34.8505,-34.851 z m 143.60518,0 a 34.850914,34.850914 0 0 1 34.8511,34.851 34.850914,34.850914 0 0 1 -34.8511,34.8507 34.850914,34.850914 0 0 1 -34.8511,-34.8507 34.850914,34.850914 0 0 1 34.8511,-34.851 z M 370.8942,58.1147 h 146.4815 143.60509 v 35.3039 h -47.85496 l 24.3551,85.2438 h -38.01887 l -11.72228,-41.0279 -11.72228,41.0279 h -38.01883 l 24.35506,-85.2438 h -44.97803 -47.855 l 24.3551,85.2438 h -38.0189 l -11.7223,-41.0279 -11.7222,41.0279 h -38.0189 l 24.3551,-85.2438 h -47.8544 z" />
  </g>
</svg>
