<?xml version="1.0" encoding="UTF-8" standalone="no"?>
<!-- Created with Inkscape (http://www.inkscape.org/) -->

<svg
   width="224.93663mm"
   height="83.066765mm"
   viewBox="0 0 224.93663 83.066765"
   version="1.1"
   id="svg1"
   xml:space="preserve"
   xmlns="http://www.w3.org/2000/svg"
   xmlns:svg="http://www.w3.org/2000/svg"><defs
     id="defs1" /><g
     id="layer1"
     transform="translate(753.57858,-1110.5083)"><g
       id="g108"
       transform="matrix(2.1160394,0,0,2.1160394,1128.2169,-1106.2497)"
       style="fill:#000000;stroke:none"><path
         style="font-size:48.2574px;line-height:0.9;font-family:'Pretendard Variable';-inkscape-font-specification:'Pretendard Variable';letter-spacing:-0.325738px;word-spacing:0px;baseline-shift:baseline;display:inline;overflow:visible;vector-effect:none;fill:#000000;stroke:none;paint-order:stroke fill markers;enable-background:accumulate;stop-color:#000000;stop-opacity:1"
         d="m -800.17578,1047.5977 c -3.26383,0 -6.29628,0.8207 -8.91602,2.4648 -2.61858,1.6437 -4.68104,4.0166 -6.11718,6.959 -1.45071,2.9722 -2.14454,6.4012 -2.14454,10.2051 0,3.7746 0.69562,7.1936 2.14258,10.1757 1.43529,2.9581 3.49764,5.3408 6.11914,6.9864 2.61974,1.6441 5.65219,2.4648 8.91602,2.4648 3.26383,0 6.29432,-0.8207 8.91406,-2.4648 2.62211,-1.6456 4.68363,-4.0278 6.11914,-6.9864 1.44696,-2.9821 2.14258,-6.4011 2.14258,-10.1757 0,-3.8039 -0.69382,-7.2329 -2.14453,-10.2051 -1.43637,-2.9429 -3.498,-5.3153 -6.11719,-6.959 -2.61974,-1.6441 -5.65023,-2.4648 -8.91406,-2.4648 z m -89.125,0.4707 v 7.9648 h 10.74414 v 30.3496 h 8.48242 v -30.3496 h 10.3457 l 8.29883,30.3496 h 7.57813 l 6.03515,-21.7441 5.9961,21.7441 h 7.58008 l 10.47851,-38.3144 h -8.66211 l -5.65039,21.9316 -5.76367,-21.9316 h -7.99609 l -5.74414,21.9961 -5.66797,-21.9961 h -6.12891 -2.53125 z m 14.93945,4.1953 h 0.0937 v 29.9238 h -0.0937 z m 35.76563,0 h 1.52343 l 0.76758,2.9218 h -3.05468 z m 38.41992,3.4863 c 1.75548,0 3.19354,0.4151 4.50195,1.25 1.28619,0.8207 2.32205,2.017 3.14258,3.7656 0.79839,1.7015 1.23828,3.8362 1.23828,6.461 0,2.6247 -0.43991,4.7595 -1.23828,6.4609 -0.82053,1.7487 -1.85639,2.943 -3.14258,3.7637 -1.30841,0.8348 -2.74647,1.25 -4.50195,1.25 -1.71877,0 -3.15547,-0.4115 -4.48828,-1.2539 -1.3009,-0.8223 -2.33954,-2.0151 -3.15821,-3.7598 -0.79836,-1.7014 -1.23828,-3.8362 -1.23828,-6.4609 0,-2.6248 0.4399,-4.7595 1.23828,-6.461 0.81867,-1.7447 1.85731,-2.9394 3.15821,-3.7617 1.33281,-0.8424 2.76951,-1.2539 4.48828,-1.2539 z m -48.68359,24.1289 h 2.45898 l -0.64063,2.3086 h -1.1875 z m 19.5957,0 h 2.45312 l -0.63086,2.3086 h -1.18554 z"
         id="path107" /><path
         style="font-size:48.2574px;line-height:0.9;font-family:'Pretendard Variable';-inkscape-font-specification:'Pretendard Variable';letter-spacing:-0.325738px;word-spacing:0px;baseline-shift:baseline;display:inline;overflow:visible;vector-effect:none;fill:#000000;stroke:none;paint-order:stroke fill markers;enable-background:accumulate;stop-color:#000000;stop-opacity:1"
         d="m -887.20381,1050.1659 h 25.73099 v 3.7701 h -10.69768 v 30.3494 h -4.2885 v -30.3494 h -10.74481 z m 28.04433,0 h 4.2885 l 7.11608,27.6161 h 0.32989 l 7.21033,-27.6161 h 4.75976 l 7.25747,27.6161 h 0.28275 l 7.11609,-27.6161 h 4.28849 l -9.33102,34.1195 h -4.38275 l -7.44596,-27.0034 h -0.28276 l -7.49309,27.0034 h -4.38276 z m 74.06324,17.0598 q 0,5.2781 -1.93218,9.2603 -1.93218,3.9822 -5.34884,6.1264 -3.41667,2.1443 -7.79942,2.1443 -4.38275,0 -7.79941,-2.1443 -3.41666,-2.1442 -5.34885,-6.1264 -1.93218,-3.9822 -1.93218,-9.2603 0,-5.3253 1.93218,-9.2839 1.93219,-3.9587 5.34885,-6.1029 3.41666,-2.1443 7.79941,-2.1443 4.38275,0 7.79942,2.1443 3.41666,2.1442 5.34884,6.1029 1.93218,3.9586 1.93218,9.2839 z m -4.09999,0 q 0,-4.2885 -1.43736,-7.3518 -1.43735,-3.0632 -3.91149,-4.6419 -2.47413,-1.5787 -5.6316,-1.5787 -3.11034,0 -5.60804,1.5787 -2.49769,1.5787 -3.93505,4.6419 -1.43735,3.0633 -1.43735,7.3518 0,4.2885 1.43735,7.3517 1.43736,3.0632 3.93505,4.6419 2.4977,1.5787 5.60804,1.5787 3.15747,0 5.6316,-1.5787 2.47414,-1.5787 3.91149,-4.6419 1.43736,-3.0632 1.43736,-7.3517 z"
         id="path108" /></g></g></svg>
